<svg viewBox="0 0 50 50" xmlns="http://www.w3.org/2000/svg" xmlns:svg="http://www.w3.org/2000/svg">
  <path fill="#f44336"
    d="M 24.811074,26.418052 C 23.628498,24.513211 22.770597,22.933932 21.582096,19.960059 19.572427,14.936911 33.804817,10.397967 28.034128,1.6764194 30.53555,7.7011178 19.05579,11.425563 17.989338,16.44279 c -0.97521,4.614713 6.815812,9.975262 6.821736,9.975262 z"
    id="path31" style="stroke-width:1.18441" />
  <path fill="#f44336"
    d="m 25.081242,17.387516 c -0.227509,2.978609 2.641245,4.566175 2.724192,6.742121 0.06635,1.771066 -1.714617,3.247347 -1.714617,3.247347 0,0 3.232533,-0.634552 4.240921,-3.336136 1.119775,-2.999918 -2.17319,-5.053928 -1.834296,-7.455994 0.31638,-2.294334 7.146411,-6.562173 7.146411,-6.562173 0,0 -10.04953,0.665332 -10.562611,7.364835 z"
    id="path33" style="stroke-width:1.18441" />
  <g id="g45" transform="matrix(1.1849462,0,0,1.1838669,-3.2129031,-3.0578642)">
    <path fill="#1565c0"
      d="m 32.084,25.055 c 1.754,-0.394 3.233,0.723 3.233,2.01 0,2.901 -4.021,5.643 -4.021,5.643 0,0 6.225,-0.742 6.225,-5.505 0,-3.15 -3.057,-3.937 -5.437,-2.148 z m -2.955,2.34 c 0,0 1.941,-1.383 2.458,-1.902 -4.763,1.011 -15.638,1.147 -15.638,0.269 0,-0.809 3.507,-1.638 3.507,-1.638 0,0 -7.773,-0.112 -7.773,2.181 0,2.39 10.175,2.561 17.446,1.09 z"
      id="path35" />
    <path fill="#1565c0"
      d="m 27.935,29.571 c -4.509,1.499 -12.814,1.02 -10.354,-0.993 -1.198,0 -2.974,0.963 -2.974,1.889 0,1.857 8.982,3.291 15.63,0.572 z"
      id="path37" />
    <path fill="#1565c0"
      d="m 18.686,32.739 c -1.636,0 -2.695,1.054 -2.695,1.822 0,2.391 9.76,2.632 13.627,0.205 L 27.16,33.134 c -2.889,1.27 -10.146,1.445 -8.474,-0.395 z"
      id="path39" />
    <path fill="#1565c0"
      d="m 36.281,36.632 c 0,-0.936 -1.055,-1.377 -1.433,-1.588 2.228,5.373 -22.317,4.956 -22.317,1.784 0,-0.721 1.807,-1.427 3.477,-1.093 l -1.42,-0.839 C 11.26,34.374 9,35.837 9,37.017 9,42.52 36.281,42.255 36.281,36.632 Z"
      id="path41" />
    <path fill="#1565c0"
      d="M 39,38.604 C 34.854,42.699 24.341,44.191 13.769,41.661 24.341,46.164 38.95,43.628 39,38.604 Z" id="path43" />
  </g>
</svg>
